<svg height="512" viewBox="0 0 502 502" width="512" xmlns="http://www.w3.org/2000/svg" xmlns:xlink="http://www.w3.org/1999/xlink">
  <linearGradient id="a">
    <stop offset="0" stop-color="#f4c22c"/>
    <stop offset="1" stop-color="#f9e198"/>
  </linearGradient>
  <linearGradient id="d" gradientUnits="userSpaceOnUse" x1="273.13" x2="273.13" xlink:href="#a" y1="112.82" y2="38.39"/>
  <linearGradient id="e" gradientUnits="userSpaceOnUse" x1="251" x2="251" y1="414.32" y2="74.31">
    <stop offset="0" stop-color="#4e5660"/>
    <stop offset="1" stop-color="#64768d"/>
  </linearGradient>
  <linearGradient id="f" gradientUnits="userSpaceOnUse" x1="454.44" x2="505.6" xlink:href="#a" y1="350.49" y2="350.49"/>
  <linearGradient id="g" gradientTransform="matrix(-1 0 0 1 702 0)" gradientUnits="userSpaceOnUse" x1="654.44" x2="705.6" xlink:href="#a" y1="350.49" y2="350.49"/>
  <linearGradient id="b">
    <stop offset="0" stop-color="#53aae6"/>
    <stop offset="1" stop-color="#a4d2f0"/>
  </linearGradient>
  <linearGradient id="h" gradientUnits="userSpaceOnUse" x1="376.09" x2="376.09" xlink:href="#b" y1="474.88" y2="288.62"/>
  <linearGradient id="c">
    <stop offset="0" stop-color="#74d2e8"/>
    <stop offset="1" stop-color="#baeaf5"/>
  </linearGradient>
  <linearGradient id="i" gradientUnits="userSpaceOnUse" x1="317.87" x2="408.11" xlink:href="#c" y1="381.26" y2="381.26"/>
  <linearGradient id="j" gradientUnits="userSpaceOnUse" x1="125.91" x2="125.91" xlink:href="#b" y1="474.88" y2="288.62"/>
  <linearGradient id="k" gradientUnits="userSpaceOnUse" x1="67.68" x2="157.93" xlink:href="#c" y1="381.26" y2="381.26"/>
  <linearGradient id="l" gradientUnits="userSpaceOnUse" x1="251" x2="251" xlink:href="#c" y1="241.68" y2="130.89"/>
  <path d="M263.5 45.24h19.26c7.95 0 14.92 5.34 16.98 13.02l12.7 47.32h-78.62l12.7-47.32a17.58 17.58 0 0116.99-13.02z" fill="url(#d)"/>
  <path d="M.83 319.73s30.87 44.84 49.57 61.53h401.2c18.7-16.7 49.57-61.53 49.57-61.53l-4.4-46.58a51.7 51.7 0 00-51.47-46.85h-30.97a13.68 13.68 0 01-12.88-9.07l-23.44-65.48a69.64 69.64 0 00-65.57-46.17H189.55A69.64 69.64 0 00124 151.75l-23.44 65.48a13.68 13.68 0 01-12.88 9.07H56.7a51.7 51.7 0 00-51.48 46.85z" fill="url(#e)"/>
  <path d="M76.42 288.12a105.97 105.97 0 00-51.88 63.85c8.71 11.14 18.29 22.53 25.86 29.29a75.47 75.47 0 0140.26-66.77 14.95 14.95 0 006.32-19.9 15.03 15.03 0 00-20.56-6.47z" fill="#3c4757"/>
  <path d="M501.77 326.12l-.6-6.39h-22.89a26.68 26.68 0 00-26.68 26.68v34.85a50.4 50.4 0 0050.17-55.14z" fill="url(#f)"/>
  <path d="M.23 326.12l.6-6.39h22.89a26.68 26.68 0 0126.68 26.68v34.85A50.4 50.4 0 01.23 326.12z" fill="url(#g)"/>
  <circle cx="376.09" cy="381.26" fill="url(#h)" r="75.5"/>
  <circle cx="376.09" cy="381.26" fill="url(#i)" r="32.03"/>
  <circle cx="125.91" cy="381.26" fill="url(#j)" r="75.5"/>
  <path d="M50.4 381.26V346.4c0-9.66-5.13-18.11-12.81-22.8a104.82 104.82 0 00-16.75 48.07c8.28 6 18.47 9.58 29.56 9.58z" fill="#efc534"/>
  <circle cx="125.91" cy="381.26" fill="url(#k)" r="32.03"/>
  <path d="M361.35 211.85l-22.9-64.06a10.81 10.81 0 00-10.18-7.17h-146.2c-9.57 0-18.1 6-21.32 15.01l-20.1 56.22a10.8 10.8 0 0010.18 14.45h200.34c7.48 0 12.7-7.4 10.18-14.45z" fill="url(#l)"/>
  <path d="M323.88 270.4h-28.84a10 10 0 110-20h28.84a10 10 0 110 20zM172.36 270.4H143.5a10 10 0 110-20h28.85a10 10 0 110 20z" fill="#c2c8cf"/>
  <path d="M241 140.62h20v85.68h-20z" fill="#18c9de"/>
  <path d="M293.52 315.68a104.94 104.94 0 00-22.93 65.58h30A75.15 75.15 0 01317 334.25a14.92 14.92 0 00-1.02-19.96 15.12 15.12 0 00-22.47 1.4z" fill="#3c4757"/>
  <g fill="#8196ab">
    <path d="M422.3 267.8h-9.5a11.5 11.5 0 110-23h9.5a11.5 11.5 0 110 23zM468.29 302.26a11.5 11.5 0 01-11.44-10.42l-1.4-14.8c-.15-1.7-.72-3.3-1.66-4.71a11.5 11.5 0 0119.11-12.79 33.33 33.33 0 015.46 15.35l1.4 14.8a11.5 11.5 0 01-11.47 12.57z"/>
  </g>
</svg>
